<?xml version="1.0" encoding="UTF-8" standalone="no" ?>
<!DOCTYPE svg PUBLIC "-//W3C//DTD SVG 1.1//EN" "http://www.w3.org/Graphics/SVG/1.1/DTD/svg11.dtd">
<svg xmlns="http://www.w3.org/2000/svg" xmlns:xlink="http://www.w3.org/1999/xlink" version="1.1" width="1080" height="1080" viewBox="0 0 1080 1080" xml:space="preserve">
<desc>Created with Fabric.js 5.2.4</desc>
<defs>
</defs>
<rect x="0" y="0" width="100%" height="100%" fill="transparent"></rect>
<g transform="matrix(1 0 0 1 540 540)" id="1ffeece9-1b7b-442e-bf79-df4a06cd0b2c"  >
<rect style="stroke: none; stroke-width: 1; stroke-dasharray: none; stroke-linecap: butt; stroke-dashoffset: 0; stroke-linejoin: miter; stroke-miterlimit: 4; fill: rgb(255,255,255); fill-rule: nonzero; opacity: 1; visibility: hidden;" vector-effect="non-scaling-stroke"  x="-540" y="-540" rx="0" ry="0" width="1080" height="1080" />
</g>
<g transform="matrix(1 0 0 1 540 540)" id="fb3e8f3b-bce2-4c14-97d2-ad629db6a458"  >
</g>
<g transform="matrix(0.43 0 0 0.43 400.67 417.73)" id="XMLID_25_"  >
<path style="stroke: rgb(255,253,253); stroke-width: 0; stroke-dasharray: none; stroke-linecap: butt; stroke-dashoffset: 0; stroke-linejoin: miter; stroke-miterlimit: 4; fill: rgb(255,255,255); fill-rule: nonzero; opacity: 1;" vector-effect="non-scaling-stroke"  transform=" translate(-245, -245)" d="M 316.554 108.336 C 321.10699999999997 115.258 319.183 124.559 312.258 129.11 C 308.818 131.371 305.58099999999996 134.038 302.637 137.03900000000002 C 299.699 140.03400000000002 295.812 141.536 291.922 141.536 C 288.13100000000003 141.536 284.33700000000005 140.109 281.41600000000005 137.245 C 275.4990000000001 131.44400000000002 275.40700000000004 121.947 281.20900000000006 116.033 C 285.6480000000001 111.509 290.5470000000001 107.474 295.7710000000001 104.041 C 302.698 99.491 312.002 101.414 316.554 108.336 z M 447.022 285.869 C 445.516 287.40500000000003 298.183 437.57300000000004 298.183 437.57300000000004 C 283.994 452.035 265.106 460 245 460 C 224.894 460 206.006 452.035 191.817 437.573 L 42.978 285.869 C -14.326 227.46300000000002 -14.326 132.42800000000003 42.978 74.02200000000002 C 70.83 45.634 107.882 30 147.31 30 C 183.679 30 218.03 43.304 245 67.648 C 271.971 43.304 306.32 30 342.689 30 C 382.117 30 419.17 45.634 447.021 74.021 C 504.326 132.428 504.326 227.463 447.022 285.869 z M 425.596 95.028 C 403.434 72.44 373.991 60 342.69 60 C 311.389 60 281.945 72.439 259.784 95.027 C 258.662 96.171 257.655 97.56 256.246 98.804 C 248.70999999999998 105.458 239.87399999999997 105.124 233.755 98.804 C 232.447 97.452 231.339 96.171 230.21699999999998 95.027 C 208.055 72.44 178.612 60 147.31 60 C 116.009 60 86.566 72.439 64.404 95.027 C 18.464 141.851 18.464 218.039 64.404 264.863 C 65.771 266.256 213.243 416.567 213.243 416.567 C 221.742 425.229 233.02 430 245 430 C 256.98 430 268.258 425.229 276.757 416.567 L 425.596 264.86400000000003 L 425.596 264.86400000000003 C 471.535 218.04 471.535 141.852 425.596 95.028 z M 404.169 116.034 C 395.19399999999996 106.88600000000001 384.69399999999996 99.989 372.961 95.53500000000001 C 365.21500000000003 92.596 356.548 96.48800000000001 353.606 104.233 C 350.664 111.977 354.55899999999997 120.64 362.307 123.581 C 369.952 126.483 376.82800000000003 131.012 382.743 137.04 C 405.954 160.69799999999998 405.954 199.19299999999998 382.743 222.851 L 330.09499999999997 276.512 C 324.292 282.427 324.38399999999996 291.924 330.301 297.724 C 333.222 300.587 337.015 302.015 340.807 302.015 C 344.696 302.015 348.583 300.513 351.521 297.518 L 404.16900000000004 243.85699999999997 C 438.744 208.616 438.744 151.275 404.169 116.034 z" stroke-linecap="round" />
</g>
</svg>